<svg xmlns="http://www.w3.org/2000/svg" width="132" height="132.656"><path d="M36.95 14.052a2.005 2.005 0 0 0-2.828 0L13.606 34.567c-.778.778-.778 2 0 2.829l2.052 2.1c.778.8 2 .8 2.8 0L38.974 18.98a2.005 2.005 0 0 0 0-2.828l-2.024-2.1z"/><g fill="#050706"><path d="M78.798 93.661l5.754-45.324 9.748 1.238-.725 5.707c1.342-2.116 2.961-3.646 4.858-4.59 1.421-.707 2.895-1.075 4.42-1.104-.376-4.327-.623-9.037-.546-13.714.467-5.584-4.225-5.553-6.576-5.293-7.204.799-14.813.408-22.488-1.363-9.533-2.2-17.043-5.514-24.102-10.838-4.107-2.143-7.234 1.23-7.234 1.23L18.346 43.2s-1.999 2.8.2 5.881c1.173 1.6 1.9 2.5 3 4.193 1.793 2.7 3.4 5.4 4.7 8.2 1.192-5.8 3.847-10.428 7.966-13.886 4.7-3.946 10.005-5.545 15.914-4.794 2.718.3 5.2 1.2 7.5 2.5 2.256 1.3 4.3 3.2 6 5.464l.635-4.998 11.373 1.443-5.667 45.337-11.373-1.444.607-4.791c-2.486 1.829-4.906 3.067-7.257 3.714-2.352.646-4.831.805-7.438.474-4.581-.582-8.491-2.512-11.75-5.751.389 4.3.4 8.303-.315 12.549-.37 2.3 2 7.2 7.4 6.879 17.447-1.045 40.6.4 62.1 14.7l-.02.016s.113.1.3.174c.895.5 3.7 1.8 5.8.2.146-.109.289-.227.428-.363-.01-.012-.021-.02-.033-.029l1.91-1.912 1.893-1.893L96.699 99.6C90.942 94.2 85.1 94.8 78.8 93.661zm.558 1.261l.219-.693.135.104-.354.589z"/><path d="M118.579 102.084c-.033-.052-.059-.102-.094-.154-8.248-13.763-13.166-33.047-14.156-39.883-.063-.434-.128-.89-.194-1.359l-.039.077c-1.248-.836-2.304-1.308-3.163-1.417-1.75-.223-3.365.673-4.85 2.7-1.482 2.013-2.626 6.186-3.43 12.518l-.238 2.213-.647 5.1c-.519 5.8 3.6 11.3 7.2 15.085l15.681 15.681 1.893-1.893 2.822-2.82v-.002c-.039-.03 1.436-2.33-.764-5.846zm-70.725-21.75c3.571.5 6.689-.413 9.358-2.601 2.668-2.187 4.258-5.293 4.77-9.32.5-3.943-.271-7.286-2.313-10.029-2.042-2.742-4.861-4.343-8.459-4.8-3.517-.445-6.595.427-9.235 2.6-2.64 2.19-4.207 5.229-4.701 9.117-.497 3.9.3 7.3 2.3 10.115C41.642 78.3 44.4 79.9 47.9 80.334z"/></g></svg>