<?xml version="1.0" encoding="UTF-8"?>
<svg width="189px" height="194px" viewBox="0 0 189 194" version="1.1" xmlns="http://www.w3.org/2000/svg" xmlns:xlink="http://www.w3.org/1999/xlink">
    <title>Group</title>
    <g id="Page-1" stroke="none" stroke-width="1" fill="none" fill-rule="evenodd">
        <g id="Artboard" transform="translate(-104.000000, -73.000000)">
            <g id="Group" transform="translate(104.500000, 73.091919)">
                <path d="M94,31.4080809 C142.048773,31.4080809 181,70.3593076 181,118.408081 C181,162.608422 147.208597,186.802612 94,186.802612 C40.7914027,186.802612 7,162.608422 7,118.408081 C7,70.3593076 45.9512268,31.4080809 94,31.4080809 Z" id="Path" fill="#C17D4F" fill-rule="nonzero"></path>
                <path d="M93,73.1053465 C130.279221,73.1053465 160.5,98.6726885 160.5,130.211603 C160.5,159.224431 134.282532,175.105346 93,175.105346 C51.7174676,175.105346 25.5,159.224431 25.5,130.211603 C25.5,98.6726885 55.7207794,73.1053465 93,73.1053465 Z" id="Path" fill="#F1D0A4" fill-rule="nonzero"></path>
                <path d="M51.2115188,164.864676 C63.4538307,164.864676 73.3781854,149.194642 73.3781854,129.864676 C73.3781854,110.53471 63.7342893,99.7977577 51.4919773,99.7977577 C39.2496654,99.7977577 24.0676976,119.682814 29.0448521,129.864676 C34.7083794,141.061289 31.3248242,160.717911 24.3101352,158.6504 C21.4299575,157.801496 22.578963,160.866199 37.7593549,166.227505 C52.9397468,171.588811 47.7707733,164.864676 51.2115188,164.864676 Z" id="Oval-Copy" fill="#C17D4F" transform="translate(48.216682, 134.049842) scale(-1, 1) rotate(-38.000000) translate(-48.216682, -134.049842) "></path>
                <path d="M94,29.4080809 C118.576671,29.4080809 140.826671,39.3697452 156.932504,55.4755773 C173.038336,71.5814095 183,93.8314095 183,118.408081 C183,140.599105 174.73276,157.943994 159.956056,169.795937 C144.250915,182.392551 121.461149,188.802612 94,188.802612 C66.5388506,188.802612 43.7490848,182.392551 28.0439439,169.795937 C13.2672397,157.943994 5,140.599105 5,118.408081 C5,93.8314095 14.9616643,71.5814095 31.0674965,55.4755773 C47.1733286,39.3697452 69.4233286,29.4080809 94,29.4080809 Z" id="Path" stroke="#000000" stroke-width="10" fill-rule="nonzero"></path>
                <ellipse id="Oval" fill="#000000" cx="57" cy="123.908081" rx="9.5" ry="15"></ellipse>
                <path d="M140.211519,164.864676 C152.453831,164.864676 162.378185,149.194642 162.378185,129.864676 C162.378185,110.53471 152.734289,99.7977577 140.491977,99.7977577 C128.249665,99.7977577 113.067698,119.682814 118.044852,129.864676 C123.708379,141.061289 120.324824,160.717911 113.310135,158.6504 C110.429957,157.801496 111.578963,160.866199 126.759355,166.227505 C141.939747,171.588811 136.770773,164.864676 140.211519,164.864676 Z" id="Oval-Copy" fill="#C17D4F" transform="translate(137.216682, 134.049842) rotate(-38.000000) translate(-137.216682, -134.049842) "></path>
                <ellipse id="Oval-Copy" fill="#000000" cx="130" cy="123.908081" rx="9.5" ry="15"></ellipse>
                <path d="M93.6180086,31.4080809 C98.8647137,31.4080809 103.5,38.1923521 103.5,29.9080809 C103.5,21.6238096 95,20.4423167 94,4.31481915 C93,-11.8126784 76.3828125,22.0439695 78.2524414,27.8299559 C83.2954102,28.0897215 88.3713034,31.4080809 93.6180086,31.4080809 Z" id="Oval-Copy" fill="#000000"></path>
                <path d="M102.745667,32.1605492 C106.996644,32.1605492 122.849638,30.4538328 113.756836,26.2489012 C104.664034,22.0439695 103.36466,20.2571305 103.055164,12.8619026 C102.745667,5.46667461 92.2214873,28.283221 95.3580887,31.0920928 C98.4946901,33.9009646 98.4946901,32.1605492 102.745667,32.1605492 Z" id="Oval-Copy" fill="#000000"></path>
                <ellipse id="Oval-Copy" fill="#000000" cx="94" cy="154.908081" rx="6.5" ry="4"></ellipse>
                <path d="M93.6236138,146.908081 C100.351348,146.908081 106.068848,140.071026 106.068848,135.100464 C106.068848,130.129901 100.351348,127.058471 93.6236138,127.058471 C86.8958794,127.058471 81.7055664,130.129901 81.7055664,135.100464 C81.7055664,140.071026 86.8958794,146.908081 93.6236138,146.908081 Z" id="Oval-Copy" fill="#C17D4F"></path>
            </g>
        </g>
    </g>
</svg>